<svg xmlns="http://www.w3.org/2000/svg" viewBox="0 0 24 24">
  <defs>
    <linearGradient id="grad" x1="0%" y1="0%" x2="100%" y2="100%">
      <stop offset="0%" style="stop-color:#6366f1"/>
      <stop offset="100%" style="stop-color:#8b5cf6"/>
    </linearGradient>
  </defs>
  <!-- Diamond outline -->
  <path fill="url(#grad)" d="M12 1L1 12L12 23L23 12L12 1ZM12 4L20 12L12 20L4 12L12 4Z"/>
  <!-- Flame inside -->
  <path fill="url(#grad)" d="M12 6L8 11C8 11 8 14 10 15.5C9 14.5 9.5 13 10.5 11.5C11.5 10 12 9 12 9C12 9 12.5 10 13.5 11.5C14.5 13 15 14.5 14 15.5C16 14 16 11 16 11L12 6Z"/>
</svg>
